<svg width="39" height="48" viewBox="0 0 39 48" fill="none" xmlns="http://www.w3.org/2000/svg">
<path d="M37.6137 47.3799H23.9147C23.7865 47.3801 23.6596 47.3549 23.5412 47.3059C23.4228 47.2568 23.3152 47.1847 23.2248 47.0939L11.2006 35.0107C11.0189 34.8278 10.9169 34.5805 10.9169 34.3227C10.9169 34.0648 11.0189 33.8175 11.2006 33.6346L23.2258 21.5744C23.4092 21.3906 23.658 21.287 23.9177 21.2864H37.6167C37.8091 21.2863 37.9971 21.3431 38.1572 21.4498C38.3173 21.5564 38.4422 21.7081 38.5162 21.8856C38.5902 22.0632 38.61 22.2587 38.5731 22.4475C38.5362 22.6362 38.4441 22.8099 38.3087 22.9464L26.9845 34.3227L38.3057 45.7109C38.4411 45.8478 38.533 46.0217 38.5699 46.2106C38.6068 46.3996 38.587 46.5953 38.5131 46.7731C38.4392 46.9509 38.3144 47.1028 38.1544 47.2099C37.9943 47.317 37.8063 47.3744 37.6137 47.3749V47.3799ZM24.3147 45.4309H35.2709L24.9186 35.0107C24.7371 34.8282 24.6351 34.5811 24.6351 34.3237C24.6351 34.0662 24.7371 33.8192 24.9186 33.6366L35.2689 23.2364H24.3207L13.2665 34.3227L24.3147 45.4309ZM8.44085 31.8796C8.31267 31.8798 8.18572 31.8546 8.06731 31.8055C7.94889 31.7564 7.84136 31.6844 7.7509 31.5936L0.876396 24.6835C0.694677 24.5006 0.592682 24.2533 0.592682 23.9954C0.592682 23.7376 0.694677 23.4903 0.876396 23.3074L23.1998 0.895946C23.3149 0.780765 23.457 0.696188 23.6131 0.649906C23.7692 0.603624 23.9344 0.597104 24.0937 0.63094H37.5847C37.7771 0.630828 37.9651 0.687679 38.1252 0.794323C38.2853 0.900967 38.4102 1.05263 38.4842 1.23018C38.5583 1.40774 38.578 1.60323 38.5411 1.79202C38.5042 1.9808 38.4121 2.15442 38.2767 2.29098L9.1318 31.5916C9.04125 31.6827 8.9336 31.7551 8.81503 31.8045C8.69646 31.8539 8.5693 31.8794 8.44085 31.8796ZM2.94125 23.9944L8.44085 29.5226L35.2389 2.57998H24.2717L2.94125 23.9944Z" fill="white"/>
</svg>
