<svg width="428" height="315" viewBox="0 0 428 315" fill="none" xmlns="http://www.w3.org/2000/svg">
<path fill-rule="evenodd" clip-rule="evenodd" d="M428 0H-2.95639e-05V199H-0.227539V237.52L4.05246 233.24C4.18736 233.116 4.32588 232.987 4.46792 232.856C9.20797 228.471 17.8652 220.462 26.5225 222.54C35.4391 224.68 44.3558 237.52 53.2725 254.64C54.7586 257.493 56.2447 260.466 57.7308 263.438C65.1613 278.299 72.5919 293.16 80.0225 293.16C84.9762 293.16 89.9299 286.555 94.8836 279.95C98.8465 274.666 102.809 269.382 106.772 267.48C111.231 265.34 115.689 267.48 120.147 269.62C124.606 271.76 129.064 273.9 133.522 271.76C137.981 269.62 142.439 263.2 146.897 256.78C151.356 250.36 155.814 243.94 160.272 241.8C167.406 238.376 174.539 245.909 181.672 253.442C183.456 255.325 185.239 257.208 187.022 258.92C195.939 267.48 204.856 271.76 213.772 263.2C216.588 260.497 219.404 256.513 222.22 252.53C228.321 243.899 234.422 235.267 240.522 239.66C244.386 242.442 248.25 250.448 252.114 258.454C257.167 268.923 262.22 279.393 267.272 278.18C271.866 277.078 276.459 266.321 281.053 255.564C285.376 245.439 289.699 235.315 294.022 233.24C301.156 229.816 308.289 248.306 315.422 266.795C317.206 271.418 318.989 276.04 320.772 280.32C329.689 301.72 338.606 314.56 347.522 314.56C356.439 314.56 365.356 301.72 374.272 286.74C377.245 281.747 380.217 276.516 383.189 271.285C389.134 260.822 395.078 250.36 401.022 241.8C409.299 229.882 417.576 221.651 422.144 217.108C422.498 216.756 422.829 216.427 423.136 216.12L427.772 211.84V203.011C427.923 202.98 428 202.964 428 202.964V0Z" fill="#BBDAEC"/>
</svg>
